<mxfile host="app.diagrams.net" modified="2024-05-29T23:41:09.808Z" agent="Mozilla/5.0 (X11; Linux x86_64) AppleWebKit/537.36 (KHTML, like Gecko) Chrome/126.0.0.0 Safari/537.36" etag="68RyNkk2eQw9ZqUAIj63" version="24.4.10" type="github">
  <diagram name="Page-1" id="_gJ4twYAfa6apUsHGWLO">
    <mxGraphModel dx="1092" dy="601" grid="1" gridSize="10" guides="1" tooltips="1" connect="1" arrows="1" fold="1" page="1" pageScale="1" pageWidth="827" pageHeight="1169" math="0" shadow="0">
      <root>
        <mxCell id="0" />
        <mxCell id="1" parent="0" />
        <mxCell id="ZpS2At7zRgrmyqsLeNAp-1" value="FOG MACHINE" style="rounded=1;whiteSpace=wrap;html=1;" vertex="1" parent="1">
          <mxGeometry x="354" y="80" width="120" height="60" as="geometry" />
        </mxCell>
        <mxCell id="ZpS2At7zRgrmyqsLeNAp-2" value="&lt;font style=&quot;font-size: 30px;&quot;&gt;Stage&lt;/font&gt;" style="rounded=0;whiteSpace=wrap;html=1;" vertex="1" parent="1">
          <mxGeometry x="199" y="160" width="430" height="260" as="geometry" />
        </mxCell>
        <mxCell id="ZpS2At7zRgrmyqsLeNAp-3" value="&lt;font style=&quot;font-size: 26px;&quot;&gt;FOH&lt;/font&gt;" style="rounded=0;whiteSpace=wrap;html=1;" vertex="1" parent="1">
          <mxGeometry x="354" y="690" width="120" height="60" as="geometry" />
        </mxCell>
        <mxCell id="ZpS2At7zRgrmyqsLeNAp-4" value="Console" style="rounded=1;whiteSpace=wrap;html=1;" vertex="1" parent="1">
          <mxGeometry x="414" y="690" width="50" height="20" as="geometry" />
        </mxCell>
      </root>
    </mxGraphModel>
  </diagram>
</mxfile>
